<svg xmlns="http://www.w3.org/2000/svg" viewBox="0 0 96 96" role="img" aria-label="Motorcycle courier icon">
  <defs>
    <linearGradient id="bike-body" x1="18" y1="22" x2="78" y2="78" gradientUnits="userSpaceOnUse">
      <stop stop-color="#16a064"/>
      <stop offset="1" stop-color="#0f6f49"/>
    </linearGradient>
    <filter id="bike-shadow" x="0" y="0" width="96" height="96" color-interpolation-filters="sRGB">
      <feDropShadow dx="0" dy="6" stdDeviation="5" flood-color="#10211b" flood-opacity="0.28"/>
    </filter>
  </defs>
  <circle cx="48" cy="48" r="45" fill="#fffaf0"/>
  <g filter="url(#bike-shadow)">
    <path d="M20 60c0-8 6-14 14-14 6 0 11 4 13 9h10c2-7 8-12 16-12 4 0 7 1 10 3l-5 8c-1-1-3-1-5-1-5 0-9 4-9 9s4 9 9 9c4 0 8-3 9-7l9 2c-2 9-9 15-18 15-8 0-15-5-18-12H45c-3 6-9 10-17 10-8 0-14-7-14-15 0-2 0-3 1-5l9 3v1c0 3 2 6 6 6s6-3 6-6-3-6-7-6c-2 0-4 1-5 2l-4-8Z" fill="#10211b"/>
    <path d="M33 38h20l9-12h11l-10 19 10 7h-9l-9-6H35l-8 8h-9l15-16Z" fill="url(#bike-body)"/>
    <path d="M54 30h17c4 0 8 3 8 7v2H62l-8-9Z" fill="#f59e0b"/>
    <path d="M43 27c5 0 9 4 9 9s-4 9-9 9-9-4-9-9 4-9 9-9Z" fill="#10211b"/>
    <path d="M43 31c3 0 5 2 5 5s-2 5-5 5-5-2-5-5 2-5 5-5Z" fill="#fffaf0"/>
  </g>
</svg>
