<svg xmlns="http://www.w3.org/2000/svg" viewBox="0 0 840 760" role="img" aria-label="Delivery courier hero artwork">
  <defs>
    <linearGradient id="hero-bg" x1="76" y1="42" x2="764" y2="704"><stop stop-color="#fff0c2"/><stop offset="0.52" stop-color="#d9f7e8"/><stop offset="1" stop-color="#fffaf0"/></linearGradient>
    <linearGradient id="route" x1="104" y1="580" x2="740" y2="178"><stop stop-color="#16a064"/><stop offset="1" stop-color="#f59e0b"/></linearGradient>
    <filter id="soft-shadow" x="-10%" y="-10%" width="120%" height="120%" color-interpolation-filters="sRGB"><feDropShadow dx="0" dy="22" stdDeviation="22" flood-color="#10211b" flood-opacity="0.18"/></filter>
  </defs>
  <rect x="0" y="0" width="840" height="760" rx="60" fill="url(#hero-bg)"/>
  <path d="M88 604C206 500 250 618 356 502c88-96 46-194 160-244 83-37 151 2 242-102" fill="none" stroke="#fffaf0" stroke-width="30" stroke-linecap="round"/>
  <path d="M88 604C206 500 250 618 356 502c88-96 46-194 160-244 83-37 151 2 242-102" fill="none" stroke="url(#route)" stroke-width="13" stroke-linecap="round" stroke-dasharray="28 22"/>
  <g filter="url(#soft-shadow)">
    <rect x="84" y="78" width="260" height="178" rx="34" fill="#fffaf0"/>
    <rect x="112" y="110" width="142" height="18" rx="9" fill="#10211b"/>
    <rect x="112" y="146" width="196" height="18" rx="9" fill="#d9f7e8"/>
    <rect x="112" y="182" width="166" height="18" rx="9" fill="#fff0c2"/>
  </g>
  <g filter="url(#soft-shadow)">
    <rect x="520" y="452" width="220" height="160" rx="32" fill="#10211b"/>
    <circle cx="572" cy="510" r="18" fill="#f59e0b"/>
    <rect x="606" y="494" width="92" height="14" rx="7" fill="#fffaf0"/>
    <rect x="560" y="546" width="142" height="16" rx="8" fill="#d9f7e8" opacity="0.75"/>
  </g>
  <g transform="translate(312 288)" filter="url(#soft-shadow)">
    <ellipse cx="146" cy="220" rx="158" ry="32" fill="#10211b" opacity="0.18"/>
    <path d="M26 186c0-32 25-58 57-58 23 0 43 14 52 34h42c8-28 34-48 64-48 17 0 32 6 45 16l-20 30c-7-5-15-8-25-8-21 0-38 17-38 38s17 38 38 38c18 0 33-13 37-30l36 10c-9 34-39 58-73 58-33 0-62-20-75-50h-49c-12 25-38 42-68 42-32 0-58-26-58-58 0-9 2-18 6-26l36 12Z" fill="#10211b"/>
    <path d="M80 98h92l44-58h48l-44 88 48 34h-48l-42-28H95l-35 34H20l60-70Z" fill="#16a064"/>
    <path d="M176 54h74c18 0 34 14 34 32v10h-78l-30-42Z" fill="#f59e0b"/>
    <circle cx="122" cy="56" r="38" fill="#10211b"/>
    <circle cx="122" cy="56" r="21" fill="#fffaf0"/>
  </g>
  <circle cx="104" cy="604" r="24" fill="#2563eb" stroke="#fffaf0" stroke-width="8"/>
  <circle cx="758" cy="156" r="24" fill="#f59e0b" stroke="#fffaf0" stroke-width="8"/>
</svg>
